<svg width="24" height="24" xmlns="http://www.w3.org/2000/svg">

 <g>
  <title>background</title>
  <rect fill="none" id="canvas_background" height="402" width="582" y="-1" x="-1"/>
 </g>
 <g>
  <title>Layer 1</title>
  <path transform="rotate(-90 12.000000000000002,12.5) " fill="#8f8e8e" id="svg_1" d="m2,12.5c0,-3.04 2.46,-5.5 5.5,-5.5l10.5,0c2.21,0 4,1.79 4,4s-1.79,4 -4,4l-8.5,0c-1.38,0 -2.5,-1.12 -2.5,-2.5s1.12,-2.5 2.5,-2.5l7.5,0l0,2l-7.59,0c-0.55,0 -0.55,1 0,1l8.59,0c1.1,0 2,-0.9 2,-2s-0.9,-2 -2,-2l-10.5,0c-1.93,0 -3.5,1.57 -3.5,3.5s1.57,3.5 3.5,3.5l9.5,0l0,2l-9.5,0c-3.04,0 -5.5,-2.46 -5.5,-5.5z"/>
  <path id="svg_2" fill="none" d="m8.984375,-3.90625l24,0l0,24l-24,0l0,-24z"/>
  <path id="svg_3" transform="scale(2) scale(-1,1) "/>
 </g>
</svg>