<?xml version="1.0" encoding="iso-8859-1"?>
<!-- Generator: Adobe Illustrator 16.0.0, SVG Export Plug-In . SVG Version: 6.00 Build 0)  -->
<!DOCTYPE svg PUBLIC "-//W3C//DTD SVG 1.1//EN" "http://www.w3.org/Graphics/SVG/1.1/DTD/svg11.dtd">
<svg version="1.1" id="Layer_1" xmlns="http://www.w3.org/2000/svg" xmlns:xlink="http://www.w3.org/1999/xlink" xml:space="preserve">
                        <path fill="#ffd300"
                              d="M19.38 33.36c-8.35-.8-15.74-4.8-18.48-9.44.14.87 1.13 2.77 1.58 4.02.33.91.81 1.66 1.04 2.33 3.45 2.45 7.42 3.73 12.87 4.25 5.63.54 10.57-.15 14.47-2.02a33.1 33.1 0 0 1-11.48.86M12.87 16.53C10 13.4 7.42 10.23 5.18 7.15A20.96 20.96 0 0 0 3 10.49a107.4 107.4 0 0 0 7.28 7.24A104.36 104.36 0 0 0 31 32.16c-5.29-3.9-11.69-8.63-18.13-15.63M24.75 11A64.1 64.1 0 0 0 18.45.55c-.33.03-.87.3-1.82.45-.71.12-1.43.04-2.01.27a63.48 63.48 0 0 1 9.73 13.49 73.64 73.64 0 0 1 7 17.1c-.64-6.24-2.55-12.78-6.6-20.86"></path>
                        <g clip-path="url(#kb)" transform="translate(-20 -14)">
                            <g fill="#005a9d">
                                <path id="kc"
                                      d="M41.24 54c-10.45 0-18.91-8.2-18.91-18.32 0-10.12 8.41-18.03 18.86-18.03 10.24 0 18.63 7.6 18.95 17.44l.02-.76a20.03 20.03 0 0 0-20.08-19.99A20.03 20.03 0 0 0 20 34.33c0 11.03 9 19.98 20.08 19.98 2.16 0 4.24-.34 6.2-.97-1.6.42-3.3.65-5.04.65"></path>
                            </g>
                        </g>
                        <g fill="#b51e82" transform="translate(-20 -14)">
                            <path id="kd"
                                  d="M30.42 25.87c7.16-7.3 18.3-7.86 24.87-1.23a16.44 16.44 0 0 1 4.24 15.39c1.86-6.23.72-13.3-4-18.05-6.92-6.97-18.6-6.54-25.75.77a18.99 18.99 0 0 0-5.04 17.46 19.52 19.52 0 0 1 5.68-14.34"></path>
                        </g>
                        <g fill="#009065" transform="translate(-20 -14)">
                            <path id="ke"
                                  d="M59.17 36.13c-.06-4.4-1.73-8.47-4.82-10.6-5.97-4.1-15.25-.89-21.03 7.57-3 4.37-4.39 9.21-4.22 13.44-1.32-4.95-.23-11.09 3.4-16.4 5.79-8.46 15.8-11.64 22.39-7.1 3.9 2.68 5.8 7.51 5.42 12.73 0 0-.11 1.5-.25 2.16-.14.62-.48 1.97-.62 2.37-.14.4-.27-4.17-.27-4.17"></path>
                        </g>
                        <g fill="#f26f21" transform="translate(-20 -14)">
                            <path id="kf"
                                  d="M39.34 33.58c-5.9 6.26-7.23 14.59-2.98 18.6a7 7 0 0 0 .59.5c-3.75-3.75-2.62-10.92 2.55-16.52 4.76-5.15 12.86-7.4 16.78-3.7 3.45 3.26 2.99 9.52-.8 14.81 5.25-6.14 6.29-13.92 2.22-17.76-4.25-4.01-12.47-2.2-18.36 4.07"></path>
                        </g>
                        <g fill="#d92128" transform="translate(-20 -14)">
                            <path id="kg"
                                  d="M44.83 39.96c-3.96 3.45-5.3 8.43-2.96 11.11 1.83 2.11 5.36 2.19 8.7.46-2.8 1.3-5.72 1.14-7.27-.65-2.07-2.38-.93-6.76 2.53-9.77 3.47-3.02 7.95-3.53 10.02-1.14 1.55 1.78 1.3 4.69-.38 7.3 2.18-3.08 2.6-6.6.77-8.7-2.33-2.69-7.44-2.07-11.4 1.39"></path>
                        </g>
                        <g fill="#d92128" transform="translate(-20 -14)">
                            <path id="kh"
                                  d="M84.1 37.96a7.86 7.86 0 0 1-4.64 1.21h-2.41l-1.45 6.78h-2.98l3.8-17.81h4.64c2.19 0 3.5.33 4.38.93a3.75 3.75 0 0 1 1.62 3.17 6.5 6.5 0 0 1-2.96 5.72m-2.99-7.4h-2.24l-1.3 6.19h2.3c1.42 0 2.2-.31 2.76-.9a4.46 4.46 0 0 0 1.24-3.02c0-1.47-.8-2.27-2.76-2.27"></path>
                        </g>
                        <g fill="#d92128" transform="translate(-20 -14)">
                            <path id="ki"
                                  d="M94.38 36.7a1.42 1.42 0 0 0-.8-.17c-.8 0-1.68.61-2.68 2.02l-1.56 7.4h-2.48l1.64-7.7c.34-1.56.31-2.43.09-3.22l2.31-.96c.25.6.34 1.46.18 2.25 1.05-1.32 2.32-2.16 3.43-2.16.41 0 .62.05.96.18z"></path>
                        </g>
                        <g fill="#d92128" transform="translate(-20 -14)">
                            <path id="kj"
                                  d="M98.39 46.21c-2.55 0-4-1.47-4-4.11 0-4.44 2.7-7.94 6.52-7.94 2.63 0 4.06 1.52 4.06 4.05 0 4.2-2.36 8-6.58 8m2.13-10.14c-2.27 0-3.45 3.64-3.45 6.25 0 1.4.66 2 1.77 2 2.23 0 3.43-3.4 3.43-6.2 0-1.55-.73-2.05-1.75-2.05"></path>
                        </g>
                        <g fill="#d92128" transform="translate(-20 -14)">
                            <path id="kk"
                                  d="M119.46 31.18c-.8-.72-1.75-1-2.88-1-1.57 0-3.01.85-4.07 2.21-1.46 1.88-2.31 5.46-2.31 7.63 0 2.55 1.28 3.9 3.6 3.9 1.18 0 2.19-.4 3.47-1.22l1.06 1.96a9.43 9.43 0 0 1-5.33 1.6c-3.78 0-6.02-2.4-6.02-6.34 0-2.86 1.08-6.3 2.9-8.56a9.2 9.2 0 0 1 7.14-3.53c1.72 0 3.26.54 4.14 1.42z"></path>
                        </g>
                        <g fill="#d92128" transform="translate(-20 -14)">
                            <path id="kl"
                                  d="M127.49 36.7a1.42 1.42 0 0 0-.8-.17c-.8 0-1.68.61-2.68 2.02l-1.56 7.4h-2.48l1.64-7.7c.34-1.56.31-2.43.09-3.22l2.31-.96c.25.6.34 1.46.18 2.25 1.05-1.32 2.32-2.16 3.43-2.16.41 0 .62.05.96.18z"></path>
                        </g>
                        <g fill="#d92128" transform="translate(-20 -14)">
                            <path id="km"
                                  d="M136.62 39.62c-.95.93-2.52 1.45-4.88 1.45-.64 0-1.18-.09-1.39-.09-.04.23-.13.84-.13 1.2 0 1.44.84 2.12 2.09 2.12 1.2 0 2.18-.4 3.24-1.25l.78 1.55a6.88 6.88 0 0 1-4.68 1.64c-2.45 0-4.09-1.48-4.09-4.21 0-2.3 1-4.78 2.57-6.3a5.34 5.34 0 0 1 3.88-1.57c2.23 0 3.63 1.02 3.63 3.07 0 .93-.36 1.75-1.02 2.39m-2.93-3.6c-1.3 0-2.43 1.03-2.93 3.19.14 0 .62.07 1 .07 1.39 0 2.34-.2 2.89-.75.3-.3.47-.66.47-1.14 0-.77-.38-1.36-1.43-1.36"></path>
                        </g>
                        <g fill="#d92128" transform="translate(-20 -14)">
                            <path id="kn"
                                  d="M148.36 41.95c-.52 2.43-.43 3.16-.12 3.7l-2.13.5c-.3-.36-.48-.93-.43-1.66a4.29 4.29 0 0 1-3.39 1.69c-2.29 0-3.38-1.37-3.38-3.96 0-2.3.9-4.75 2.52-6.35a5.58 5.58 0 0 1 3.84-1.61c1.02 0 1.82.16 2.2.36 0-.11.2-1.16.3-1.54l.81-3.87 2.39.4zm-3.18-5.67c-.73 0-1.55.37-2.1 1.05-.92 1.14-1.56 3.37-1.56 4.94 0 1.25.46 1.9 1.39 1.9.95 0 2.2-.84 2.9-2.04l1.16-5.4a2.91 2.91 0 0 0-1.8-.45z"></path>
                        </g>
                        <g fill="#d92128" transform="translate(-20 -14)">
                            <path id="ko"
                                  d="M153.51 45.94h-2.54l2.4-11.37 2.62-.39zm1.89-13.17a1.67 1.67 0 1 1 .02-3.34c.91 0 1.64.75 1.64 1.66 0 .93-.73 1.68-1.66 1.68z"></path>
                        </g>
                        <g fill="#d92128" transform="translate(-20 -14)">
                            <path id="kp"
                                  d="M163.48 36.22h-2.2l-1.3 6.18c-.09.43-.13.82-.13 1.12 0 .72.34.95 1.06.95a3 3 0 0 0 1.16-.23v1.55c-.8.32-1.59.48-2.38.48-1.55 0-2.41-.78-2.41-1.93 0-.41.05-1 .16-1.57l1.38-6.55h-1.29l.36-1.78h1.3c.23-1.04.45-1.93.75-2.8l2.65-.61c-.31.98-.7 2.32-.93 3.41h2.75z"></path>
                        </g>
                        <g fill="#d92128" transform="translate(-20 -14)">
                            <path id="kq"
                                  d="M179.83 36.52c1.88.36 2.83 1.8 2.83 3.58 0 1.31-.64 2.94-1.93 4.15-1.33 1.23-2.75 1.7-5.7 1.7h-5.67l3.8-17.81h5.57c3.37 0 4.99 1.47 4.99 3.87 0 1.93-1.21 3.76-3.89 4.5m-3.21 1.42h-2.63l-1.18 5.6h2.83c1.05 0 1.83-.29 2.42-.7a3.52 3.52 0 0 0 1.36-2.76c0-1.42-.7-2.14-2.8-2.14m1.36-7.29h-2.47l-1 4.84h2.57c1.1 0 1.78-.2 2.3-.61a2.86 2.86 0 0 0 1.1-2.27c0-1.29-.62-1.96-2.5-1.96"></path>
                        </g>
                        <g fill="#d92128" transform="translate(-20 -14)">
                            <path id="kr"
                                  d="M194.19 37.66l-.93 4.55c-.3 1.39-.16 1.98.4 2.6l-2.04 1.52a2.3 2.3 0 0 1-.86-1.89 4.13 4.13 0 0 1-3.45 1.77c-1.8 0-3-1.2-3-3.66 0-2.54.95-5 2.43-6.52a6.1 6.1 0 0 1 4.56-1.87 6.8 6.8 0 0 1 3.57.86c-.2.64-.52 1.82-.68 2.64M191 36.14c-1.02 0-1.75.23-2.64 1.27-1.02 1.23-1.5 3.46-1.5 5.07 0 1.26.42 1.73 1.25 1.73 1.05 0 2.2-1.04 2.73-2.2l1.23-5.64a2.4 2.4 0 0 0-1.07-.23"></path>
                        </g>
                        <g fill="#d92128" transform="translate(-20 -14)">
                            <path id="ks"
                                  d="M206.29 37.7l-1.75 8.24h-2.47l1.6-7.62c.12-.5.17-.86.17-1.11 0-.66-.3-.91-.91-.91-.82 0-1.95.57-3.16 2.14l-1.59 7.5h-2.45l1.68-7.96c.27-1.34.3-2.11.05-2.95l2.31-.96c.23.52.37 1.36.2 2.16a5.31 5.31 0 0 1 4.14-2.05c1.43 0 2.3.9 2.3 2.28 0 .38-.03.86-.12 1.25"></path>
                        </g>
                        <g transform="translate(-20 -14)">
                            <g fill="#d92128">
                                <path id="kt"
                                      d="M213.05 33.19l-2.72 12.76h-2.5l2.7-12.72c.32-1.45.37-2.6.18-3.3l2.6-.86c.2.64.17 2.1-.26 4.12zm1.3 6.25l3.45 6.35-2.8.32-3.2-6.74 4.75-5.14 2.68.46z"></path>
                            </g>
                        </g>

</svg>